# xmcd
#
# Track frame offsets:
#	150
#	17846
#	38481
#	52304
#	62613
#	76012
#	90059
#	105051
#	124403
#	138036
#	151345
#	167150
#
# Disc length: 2409 seconds
# Revision: 0
# Processed by: cddbd v1.5.2PL0 Copyright (c) Steve Scherf et al.
# Submitted via: dBpowerAMP V12.0
#
DISCID=8209670c
DTITLE=Noel Poppa Riley - Memories of The Old Timers
DYEAR=2002
DGENRE=Country
TTITLE0=One Day at a Time
TTITLE1=Freight Train Yodel
TTITLE2=Let Me Be the First to Know
TTITLE3=The Truth Will Set us Free
TTITLE4=Cold Cold Heart
TTITLE5=She Taught me to Yodel
TTITLE6=Little Red Bonnet
TTITLE7=No Bodys Child
TTITLE8=Lead Me Down to The Stockyards
TTITLE9=You Can never Do Wrong
TTITLE10=Oh Brother
TTITLE11=Out Back Pub
EXTD=
EXTT0=
EXTT1=
EXTT2=
EXTT3=
EXTT4=
EXTT5=
EXTT6=
EXTT7=
EXTT8=
EXTT9=
EXTT10=
EXTT11=
PLAYORDER=
